<svg width="64" height="66" viewBox="0 0 64 66" fill="none" xmlns="http://www.w3.org/2000/svg">
<path d="M8.47366 27.143C7.96883 27.143 7.55375 26.9972 7.22841 26.7055C6.9143 26.4026 6.75724 26.0324 6.75724 25.5949C6.75724 25.1461 6.9143 24.7759 7.22841 24.4842C7.55375 24.1813 7.96883 24.0299 8.47366 24.0299C8.96726 24.0299 9.37113 24.1813 9.68524 24.4842C10.0106 24.7759 10.1732 25.1461 10.1732 25.5949C10.1732 26.0324 10.0106 26.4026 9.68524 26.7055C9.37113 26.9972 8.96726 27.143 8.47366 27.143ZM9.92083 38.7204C9.92083 39.8759 9.62915 40.706 9.04579 41.2109C8.46244 41.7269 7.6491 41.9849 6.60579 41.9849H5.47834V39.5449H6.16828C6.48239 39.5449 6.70676 39.4832 6.84138 39.3598C6.976 39.2364 7.04331 39.0345 7.04331 38.754V28.119H9.92083V38.7204ZM21.2617 28.119V37.5088H18.3842V36.2299C18.0925 36.645 17.6943 36.9815 17.1894 37.2395C16.6958 37.4864 16.1461 37.6098 15.5403 37.6098C14.8223 37.6098 14.1885 37.4527 13.6388 37.1386C13.0891 36.8132 12.6628 36.3477 12.3599 35.7419C12.057 35.1361 11.9056 34.4237 11.9056 33.6048V28.119H14.7663V33.2178C14.7663 33.846 14.9289 34.334 15.2543 34.6818C15.5796 35.0295 16.0171 35.2034 16.5668 35.2034C17.1277 35.2034 17.5708 35.0295 17.8962 34.6818C18.2215 34.334 18.3842 33.846 18.3842 33.2178V28.119H21.2617ZM27.1485 37.6434C26.3295 37.6434 25.6003 37.5032 24.9609 37.2227C24.3214 36.9423 23.8166 36.5608 23.4464 36.0784C23.0762 35.5848 22.8686 35.0351 22.8238 34.4293H25.6676C25.7013 34.7547 25.8527 35.0183 26.122 35.2202C26.3912 35.4222 26.7222 35.5231 27.1148 35.5231C27.4738 35.5231 27.7486 35.4558 27.9394 35.3212C28.1413 35.1754 28.2423 34.9903 28.2423 34.7659C28.2423 34.4967 28.102 34.3003 27.8216 34.1769C27.5411 34.0423 27.0868 33.8965 26.4585 33.7394C25.7854 33.5824 25.2245 33.4197 24.7758 33.2514C24.327 33.0719 23.94 32.7971 23.6147 32.4269C23.2893 32.0454 23.1267 31.535 23.1267 30.8955C23.1267 30.3571 23.2725 29.8691 23.5642 29.4315C23.8671 28.9828 24.3046 28.6294 24.8767 28.3714C25.4601 28.1134 26.15 27.9844 26.9465 27.9844C28.1245 27.9844 29.05 28.2761 29.7231 28.8594C30.4074 29.4428 30.8 30.2168 30.901 31.1816H28.2423C28.1974 30.8563 28.0515 30.5983 27.8047 30.4075C27.5692 30.2168 27.255 30.1215 26.8624 30.1215C26.5258 30.1215 26.2678 30.1888 26.0883 30.3234C25.9088 30.4468 25.8191 30.6207 25.8191 30.8451C25.8191 31.1143 25.9593 31.3162 26.2398 31.4509C26.5315 31.5855 26.9802 31.7201 27.586 31.8547C28.2815 32.0342 28.848 32.2137 29.2856 32.3932C29.7231 32.5615 30.1045 32.8419 30.4298 33.2346C30.7664 33.616 30.9403 34.1321 30.9515 34.7827C30.9515 35.3324 30.7944 35.826 30.4803 36.2635C30.1774 36.6898 29.7343 37.0264 29.1509 37.2732C28.5788 37.52 27.9113 37.6434 27.1485 37.6434ZM37.9453 35.0688V37.5088H36.4813C35.438 37.5088 34.6247 37.2564 34.0413 36.7515C33.458 36.2355 33.1663 35.3997 33.1663 34.2442V30.5085H32.022V28.119H33.1663V25.8304H36.0438V28.119H37.9285V30.5085H36.0438V34.2779C36.0438 34.5584 36.1111 34.7603 36.2457 34.8837C36.3804 35.0071 36.6047 35.0688 36.9188 35.0688H37.9453ZM42.542 32.7971C42.542 31.8323 42.7215 30.9853 43.0805 30.2561C43.4507 29.5269 43.9499 28.966 44.5782 28.5733C45.2064 28.1807 45.9075 27.9844 46.6816 27.9844C47.3435 27.9844 47.9212 28.119 48.4149 28.3882C48.9197 28.6575 49.3067 29.0109 49.576 29.4484V28.119H52.4535V37.5088H49.576V36.1794C49.2955 36.6169 48.9029 36.9703 48.398 37.2395C47.9044 37.5088 47.3267 37.6434 46.6648 37.6434C45.9019 37.6434 45.2064 37.4471 44.5782 37.0544C43.9499 36.6506 43.4507 36.0841 43.0805 35.3549C42.7215 34.6144 42.542 33.7618 42.542 32.7971ZM49.576 32.8139C49.576 32.0959 49.374 31.5294 48.9702 31.1143C48.5775 30.6992 48.0951 30.4917 47.523 30.4917C46.9509 30.4917 46.4629 30.6992 46.059 31.1143C45.6663 31.5182 45.47 32.0791 45.47 32.7971C45.47 33.515 45.6663 34.0872 46.059 34.5135C46.4629 34.9286 46.9509 35.1361 47.523 35.1361C48.0951 35.1361 48.5775 34.9286 48.9702 34.5135C49.374 34.0984 49.576 33.5319 49.576 32.8139Z" fill="#D42201"/>
<path d="M56.422 22.3491C56.422 19.4142 55.6943 16.508 54.2805 13.7965C52.8666 11.085 50.7943 8.62122 48.1819 6.54591C45.5694 4.4706 42.468 2.82438 39.0547 1.70123C35.6413 0.578077 31.983 -1.2829e-07 28.2884 0C24.5938 1.2829e-07 20.9355 0.578078 17.5221 1.70123C14.1088 2.82438 11.0074 4.4706 8.39493 6.54591C5.78248 8.62122 3.71018 11.085 2.29633 13.7965C0.882482 16.508 0.154785 19.4142 0.154785 22.3491L28.2884 22.3491H56.422Z" fill="#FE8331"/>
<path d="M0.290041 50.6648C0.307776 52.6157 1.06644 54.5408 2.5227 56.3301C3.97897 58.1195 6.10433 59.738 8.77743 61.0934C11.4505 62.4487 14.619 63.5143 18.102 64.2293C21.585 64.9443 25.3142 65.2947 29.0768 65.2605C32.8394 65.2263 36.5617 64.8081 40.0311 64.0299C43.5005 63.2517 46.6491 62.1287 49.2971 60.725C51.9451 59.3213 54.0407 57.6644 55.4642 55.8489C56.8877 54.0334 57.6112 52.0948 57.5935 50.1439L28.9418 50.4043L0.290041 50.6648Z" fill="#FE8331"/>
<path d="M20.6648 40.3511H22.6592L24.7656 45.4902H24.8553L26.9617 40.3511H28.9561V48H27.3875V43.0215H27.324L25.3445 47.9627H24.2764L22.2969 43.0028H22.2334V48H20.6648V40.3511ZM32.873 48.112C32.2829 48.112 31.7749 47.9925 31.3492 47.7535C30.9259 47.512 30.5997 47.1709 30.3706 46.7302C30.1416 46.287 30.027 45.7628 30.027 45.1578C30.027 44.5677 30.1416 44.0498 30.3706 43.6041C30.5997 43.1584 30.9222 42.8111 31.338 42.5621C31.7563 42.3131 32.2468 42.1886 32.8095 42.1886C33.1879 42.1886 33.5403 42.2496 33.8664 42.3716C34.1951 42.4911 34.4814 42.6717 34.7254 42.9132C34.9719 43.1547 35.1637 43.4585 35.3006 43.8245C35.4375 44.188 35.506 44.6138 35.506 45.1018V45.5388H30.662V44.5528H34.0084C34.0084 44.3237 33.9586 44.1208 33.859 43.944C33.7594 43.7672 33.6212 43.629 33.4444 43.5294C33.2701 43.4273 33.0672 43.3763 32.8356 43.3763C32.5941 43.3763 32.38 43.4323 32.1932 43.5444C32.009 43.6539 31.8646 43.8021 31.76 43.9888C31.6554 44.1731 31.6019 44.3785 31.5994 44.6051V45.5425C31.5994 45.8263 31.6517 46.0716 31.7563 46.2782C31.8633 46.4849 32.014 46.6443 32.2082 46.7563C32.4024 46.8684 32.6327 46.9244 32.8991 46.9244C33.0759 46.9244 33.2377 46.8995 33.3846 46.8497C33.5315 46.7999 33.6573 46.7252 33.7619 46.6256C33.8664 46.526 33.9461 46.404 34.0009 46.2596L35.4724 46.3567C35.3977 46.7102 35.2446 47.019 35.013 47.2829C34.784 47.5444 34.4877 47.7485 34.1241 47.8954C33.7631 48.0398 33.3461 48.112 32.873 48.112ZM38.1353 44.6835V48H36.5443V42.2633H38.0606V43.2755H38.1279C38.2548 42.9418 38.4677 42.6779 38.7665 42.4837C39.0653 42.287 39.4276 42.1886 39.8533 42.1886C40.2517 42.1886 40.5991 42.2758 40.8954 42.4501C41.1917 42.6244 41.422 42.8733 41.5863 43.197C41.7506 43.5182 41.8328 43.9017 41.8328 44.3474V48H40.2418V44.6312C40.2443 44.2801 40.1546 44.0062 39.9729 43.8095C39.7911 43.6103 39.5409 43.5108 39.2222 43.5108C39.008 43.5108 38.8188 43.5568 38.6545 43.6489C38.4926 43.7411 38.3656 43.8755 38.2735 44.0523C38.1839 44.2266 38.1378 44.437 38.1353 44.6835ZM46.7656 45.5574V42.2633H48.3566V48H46.829V46.958H46.7693C46.6398 47.2941 46.4244 47.5643 46.1232 47.7684C45.8244 47.9726 45.4596 48.0747 45.0289 48.0747C44.6454 48.0747 44.308 47.9876 44.0167 47.8133C43.7254 47.639 43.4976 47.3912 43.3333 47.07C43.1714 46.7488 43.0893 46.3642 43.0868 45.916V42.2633H44.6778V45.6321C44.6803 45.9708 44.7712 46.2384 44.9504 46.4351C45.1297 46.6318 45.37 46.7302 45.6713 46.7302C45.863 46.7302 46.0422 46.6866 46.2091 46.5994C46.3759 46.5098 46.5103 46.3778 46.6124 46.2036C46.717 46.0293 46.768 45.8139 46.7656 45.5574Z" fill="#D42201"/>
</svg>
